# xmcd CD database file
#
# Track frame offsets:
#	150
#	17677
#	36757
#	56387
#	82637
#	95482
#	120487
#	145887
#
# Disc length: 2289 seconds
#
# Revision: 3
# Processed by: cddbd v1.5.1PL2 Copyright (c) Steve Scherf et al.
# Submitted via: CDex 1.51
#
DISCID=5608ef08
DTITLE=AEROSMITH - Get Your Wings
DYEAR=1974
DGENRE=Hard Rock
TTITLE0=Same Old Song And Dance
TTITLE1=Lord Of The Thighs
TTITLE2=Spaced
TTITLE3=Woman Of The World
TTITLE4=S.O.S. (Too Bad)
TTITLE5=Train Kept A Rollin'
TTITLE6=Seasons Of Wither
TTITLE7=Pandora's Box
EXTD=YEAR: 1974
EXTT0=
EXTT1=
EXTT2=
EXTT3=
EXTT4=
EXTT5=
EXTT6=
EXTT7=
PLAYORDER=
